<svg width="29" height="21" viewBox="0 0 29 21" fill="none" xmlns="http://www.w3.org/2000/svg">
<path d="M20.6572 10.5C20.6572 13.9978 17.9005 16.8333 14.5 16.8333C11.0995 16.8333 8.34284 13.9978 8.34284 10.5C8.34284 7.0022 11.0995 4.16667 14.5 4.16667C17.9005 4.16667 20.6572 7.0022 20.6572 10.5Z" stroke="#33363F"/>
<path d="M27.1038 8.81262C27.7013 9.5588 28 9.93189 28 10.5C28 11.0681 27.7013 11.4412 27.1038 12.1874C24.9178 14.9173 20.0964 20 14.5 20C8.90355 20 4.08217 14.9173 1.89624 12.1874C1.29875 11.4412 1 11.0681 1 10.5C1 9.93189 1.29875 9.5588 1.89624 8.81262C4.08217 6.08272 8.90355 1 14.5 1C20.0964 1 24.9178 6.08272 27.1038 8.81262Z" stroke="#33363F"/>
</svg>
