<svg width="750" height="242" viewBox="0 0 750 242" fill="none" xmlns="http://www.w3.org/2000/svg">
<g clip-path="url(#clip0_659_62)">
<path d="M748.397 30.7466C750.532 32.8921 750.532 36.3705 748.397 38.516L691.524 95.5283C690.502 96.5586 689.921 97.9562 689.921 99.413V142.587C689.921 144.044 690.502 145.441 691.524 146.472L748.397 203.484C750.532 205.629 750.532 209.108 748.397 211.253L719.328 240.391C717.193 242.537 713.721 242.536 711.58 240.391L641.068 169.701C639.012 167.64 637.856 164.845 637.856 161.931V80.0693C637.856 77.155 639.012 74.3605 641.068 72.2999L711.58 1.60909C713.721 -0.536365 717.193 -0.536365 719.328 1.60909L748.397 30.7466Z" fill="#222222"/>
<path d="M595.062 218.108C593.905 217.022 593.905 215.183 595.062 214.097L615.436 194.977C617.19 193.334 620.05 194.579 620.05 196.982V235.223C620.05 237.627 617.19 238.871 615.436 237.229L595.062 218.108Z" fill="#FF6E1F"/>
<path d="M662.619 214.112C663.756 215.195 663.756 217.011 662.619 218.094L642.623 237.148C640.881 238.81 637.996 237.57 637.996 235.157V197.049C637.996 194.635 640.881 193.395 642.623 195.058L662.619 214.112Z" fill="#FF6E1F"/>
<path d="M620.323 161.811C620.323 164.725 619.167 167.52 617.117 169.581L546.483 240.391C544.343 242.537 540.873 242.537 538.734 240.391L509.67 211.253C507.529 209.108 507.529 205.629 509.67 203.484L566.66 146.349C567.688 145.319 568.265 143.921 568.265 142.464V99.5358C568.265 98.0789 567.688 96.6814 566.66 95.6511L509.67 38.516C507.53 36.3706 507.53 32.8921 509.67 30.7466L538.734 1.60909C540.873 -0.536366 544.343 -0.536364 546.483 1.6091L617.117 72.4191C619.167 74.4797 620.323 77.2742 620.323 80.1885V161.811Z" fill="#222222"/>
<path d="M533.642 119.603C532.485 120.688 532.485 122.528 533.642 123.614L554.018 142.734C555.769 144.377 558.63 143.133 558.63 140.729V102.488C558.63 100.084 555.769 98.8394 554.018 100.483L533.642 119.603Z" fill="#FF6E1F"/>
<path d="M723.901 127.624C725.062 126.539 725.062 124.699 723.901 123.613L703.53 104.493C701.776 102.85 698.915 104.095 698.915 106.499V144.739C698.915 147.143 701.776 148.387 703.53 146.745L723.901 127.624Z" fill="#FF6E1F"/>
<path d="M174.508 46.7542V199.65H137.274V107.956L103.089 199.65H73.0404L38.6372 107.738V199.65H1.40332V46.7542H45.3872L88.2823 152.605L130.742 46.7542H174.508ZM273.574 201.174C259.203 201.174 245.993 197.835 233.945 191.156C222.042 184.476 212.534 175.184 205.421 163.277C198.453 151.226 194.969 137.722 194.969 122.766C194.969 107.811 198.453 94.3798 205.421 82.4734C212.534 70.567 222.042 61.2742 233.945 54.595C245.993 47.9158 259.203 44.5762 273.574 44.5762C287.945 44.5762 301.082 47.9158 312.985 54.595C325.034 61.2742 334.469 70.567 341.292 82.4734C348.26 94.3798 351.743 107.811 351.743 122.766C351.743 137.722 348.26 151.226 341.292 163.277C334.324 175.184 324.889 184.476 312.985 191.156C301.082 197.835 287.945 201.174 273.574 201.174ZM273.574 167.198C285.768 167.198 295.493 163.132 302.752 155.001C310.155 146.87 313.856 136.125 313.856 122.766C313.856 109.263 310.155 98.518 302.752 90.532C295.493 82.4008 285.768 78.3352 273.574 78.3352C261.235 78.3352 251.364 82.3282 243.961 90.3142C236.703 98.3002 233.074 109.118 233.074 122.766C233.074 136.27 236.703 147.087 243.961 155.219C251.364 163.205 261.235 167.198 273.574 167.198ZM429.724 46.7542C445.837 46.7542 459.918 49.9486 471.966 56.3374C484.014 62.7262 493.305 71.7286 499.837 83.3446C506.514 94.8154 509.853 108.101 509.853 123.202C509.853 138.158 506.514 151.443 499.837 163.059C493.305 174.675 483.942 183.678 471.748 190.067C459.7 196.455 445.692 199.65 429.724 199.65H372.458V46.7542H429.724ZM427.329 167.415C441.41 167.415 452.369 163.568 460.208 155.872C468.047 148.176 471.966 137.286 471.966 123.202C471.966 109.118 468.047 98.155 460.208 90.3142C452.369 82.4734 441.41 78.553 427.329 78.553H409.692V167.415H427.329Z" fill="#222222"/>
</g>
<defs>
<clipPath id="clip0_659_62">
<rect width="750" height="242" fill="white"/>
</clipPath>
</defs>
</svg>
