<svg width="442" height="441" viewBox="0 0 442 441" fill="none" xmlns="http://www.w3.org/2000/svg">
<path d="M438.711 56.1081C442.616 60.0134 442.616 66.345 438.711 70.2503L334.935 174.026C333.059 175.902 332.006 178.445 332.006 181.097V259.684C332.006 262.336 333.059 264.88 334.935 266.755L438.71 370.531C442.615 374.436 442.615 380.768 438.71 384.673L385.673 437.71C381.768 441.615 375.436 441.615 371.531 437.71L242.858 309.037C239.107 305.286 237 300.199 237 294.895L237 145.887C237 140.582 239.107 135.495 242.858 131.745L371.531 3.07102C375.437 -0.834221 381.768 -0.834221 385.674 3.07102L438.711 56.1081Z" fill="#FF6E1F"/>
<path d="M158.9 397.15C156.789 395.175 156.789 391.825 158.9 389.85L196.083 355.046C199.278 352.056 204.5 354.321 204.5 358.696V428.304C204.5 432.679 199.278 434.944 196.083 431.954L158.9 397.15Z" fill="#FF6E1F"/>
<path d="M282.187 389.876C284.261 391.847 284.261 395.153 282.187 397.124L245.695 431.807C242.51 434.833 237.25 432.576 237.25 428.182V358.818C237.25 354.424 242.51 352.167 245.695 355.193L282.187 389.876Z" fill="#FF6E1F"/>
<path d="M205 294.677C205 299.981 202.893 305.068 199.142 308.819L70.2508 437.71C66.3455 441.615 60.0139 441.615 56.1086 437.71L3.07151 384.673C-0.833735 380.768 -0.833731 374.436 3.07151 370.531L107.071 266.531C108.946 264.656 110 262.112 110 259.46V181.32C110 178.668 108.946 176.125 107.071 174.249L3.07195 70.2503C-0.833293 66.3451 -0.833292 60.0134 3.07195 56.1082L56.1091 3.07107C60.0143 -0.834174 66.346 -0.834171 70.2512 3.07107L199.142 131.962C202.893 135.713 205 140.8 205 146.104L205 294.677Z" fill="#FF6E1F"/>
<path d="M46.8168 217.847C44.7058 219.823 44.7058 223.172 46.8168 225.148L84 259.952C87.1943 262.942 92.4168 260.677 92.4168 256.301V186.694C92.4168 182.319 87.1943 180.054 84 183.044L46.8168 217.847Z" fill="#FF6E1F"/>
<path d="M394.017 232.449C396.128 230.473 396.128 227.124 394.017 225.148L356.834 190.344C353.64 187.355 348.417 189.62 348.417 193.995V263.602C348.417 267.978 353.64 270.243 356.834 267.253L394.017 232.449Z" fill="#FF6E1F"/>
<path d="M216.32 129.752C219.124 132.749 223.876 132.749 226.68 129.752L276.071 76.9518C280.314 72.4159 277.099 65 270.89 65L172.11 65C165.901 65 162.686 72.4159 166.929 76.9518L216.32 129.752Z" fill="#FF6E1F"/>
<path d="M209.998 346.235C215.953 352.588 226.047 352.588 232.002 346.235L336.902 234.331C345.914 224.717 339.087 209 325.9 209L221 300.791L116.1 209C102.913 209 96.0859 224.717 105.098 234.331L209.998 346.235Z" fill="#FF6E1F"/>
<circle cx="192" cy="292" r="11" fill="#FEFCFC"/>
<circle cx="250" cy="292" r="11" fill="#FEFCFC"/>
<circle cx="157" cy="220" r="28" fill="#FEFCFC"/>
<circle cx="157" cy="220" r="11" fill="#222222"/>
<circle cx="289" cy="220" r="28" fill="#FEFCFC"/>
<circle cx="289" cy="220" r="11" fill="#222222"/>
<rect x="139" y="162" width="74" height="26" rx="10" transform="rotate(30 139 162)" fill="#222222"/>
<rect x="245" y="199" width="74" height="26" rx="10" transform="rotate(-30 245 199)" fill="#222222"/>
</svg>
