<svg width="242" height="242" viewBox="0 0 242 242" fill="none" xmlns="http://www.w3.org/2000/svg">
<path d="M240.332 30.7466C242.467 32.8921 242.467 36.3705 240.332 38.516L183.459 95.5283C182.437 96.5586 181.857 97.9562 181.857 99.413V142.587C181.857 144.044 182.437 145.441 183.459 146.472L240.332 203.484C242.467 205.629 242.467 209.108 240.332 211.253L211.264 240.391C209.129 242.537 205.657 242.536 203.516 240.391L133.004 169.701C130.947 167.64 129.792 164.845 129.792 161.931V80.0693C129.792 77.155 130.947 74.3605 133.004 72.2999L203.516 1.60909C205.657 -0.536365 209.129 -0.536365 211.264 1.60909L240.332 30.7466Z" fill="url(#paint0_linear_880_63)"/>
<path d="M86.9977 218.108C85.8406 217.022 85.8406 215.183 86.9977 214.097L107.371 194.977C109.125 193.334 111.986 194.579 111.986 196.982V235.223C111.986 237.627 109.125 238.871 107.371 237.229L86.9977 218.108Z" fill="#FF6E1F"/>
<path d="M154.555 214.112C155.692 215.195 155.692 217.011 154.555 218.094L134.559 237.148C132.817 238.81 129.932 237.57 129.932 235.157V197.049C129.932 194.635 132.817 193.395 134.559 195.058L154.555 214.112Z" fill="#FF6E1F"/>
<path d="M112.258 161.811C112.258 164.725 111.103 167.52 109.053 169.581L38.4189 240.391C36.2783 242.537 32.809 242.537 30.6691 240.391L1.60539 211.253C-0.535131 209.108 -0.535131 205.629 1.60539 203.484L58.5957 146.349C59.6233 145.319 60.2009 143.921 60.2009 142.464V99.5358C60.2009 98.0789 59.6233 96.6814 58.5957 95.6511L1.60539 38.516C-0.534526 36.3706 -0.534526 32.8921 1.60539 30.7466L30.6691 1.60909C32.809 -0.536366 36.2789 -0.536364 38.4189 1.6091L109.053 72.4191C111.103 74.4797 112.258 77.2742 112.258 80.1885V161.811Z" fill="url(#paint1_linear_880_63)"/>
<path d="M25.5773 119.603C24.4208 120.688 24.4208 122.528 25.5773 123.614L45.9537 142.734C47.7041 144.377 50.5656 143.133 50.5656 140.729V102.488C50.5656 100.084 47.7041 98.8394 45.9537 100.483L25.5773 119.603Z" fill="#FF6E1F"/>
<path d="M215.836 127.624C216.998 126.539 216.998 124.699 215.836 123.613L195.466 104.493C193.711 102.85 190.851 104.095 190.851 106.499V144.739C190.851 147.143 193.711 148.387 195.466 146.745L215.836 127.624Z" fill="#FF6E1F"/>
<defs>
<linearGradient id="paint0_linear_880_63" x1="137.304" y1="60.5" x2="258.145" y2="92.8298" gradientUnits="userSpaceOnUse">
<stop stop-color="#FA871F"/>
<stop offset="1" stop-color="#FF6E1F"/>
</linearGradient>
<linearGradient id="paint1_linear_880_63" x1="7.51987" y1="60.5" x2="128.469" y2="92.8926" gradientUnits="userSpaceOnUse">
<stop stop-color="#FA871F"/>
<stop offset="1" stop-color="#FF6E1F"/>
</linearGradient>
</defs>
</svg>
